<svg xmlns="http://www.w3.org/2000/svg" xmlns:xlink="http://www.w3.org/1999/xlink" width="88" height="88" viewBox="0 0 88 88">
  <defs>
    <filter id="Rectangle_309" x="0" y="0" width="88" height="88" filterUnits="userSpaceOnUse">
      <feOffset dy="3" input="SourceAlpha"/>
      <feGaussianBlur stdDeviation="3" result="blur"/>
      <feFlood flood-opacity="0.161"/>
      <feComposite operator="in" in2="blur"/>
      <feComposite in="SourceGraphic"/>
    </filter>
  </defs>
  <g id="Group_184" data-name="Group 184" transform="translate(-37 -39)">
    <g transform="matrix(1, 0, 0, 1, 37, 39)" filter="url(#Rectangle_309)">
      <rect id="Rectangle_309-2" data-name="Rectangle 309" width="70" height="70" rx="10" transform="translate(9 6)" fill="#fff"/>
    </g>
    <path id="Icon_awesome-camera" data-name="Icon awesome-camera" d="M40,11.25V34.393a3.806,3.806,0,0,1-3.75,3.857H3.75A3.806,3.806,0,0,1,0,34.393V11.25A3.806,3.806,0,0,1,3.75,7.393h6.875l.961-2.644a3.75,3.75,0,0,1,3.508-2.5h9.8a3.75,3.75,0,0,1,3.508,2.5l.969,2.644H36.25A3.806,3.806,0,0,1,40,11.25ZM29.375,22.821A9.519,9.519,0,0,0,20,13.179a9.519,9.519,0,0,0-9.375,9.643A9.519,9.519,0,0,0,20,32.464,9.519,9.519,0,0,0,29.375,22.821Zm-2.5,0A6.986,6.986,0,0,1,20,29.893,7.074,7.074,0,0,1,20,15.75,6.986,6.986,0,0,1,26.875,22.821Z" transform="translate(61 59.75)" fill="#5354d7"/>
  </g>
</svg>
